<svg xmlns="http://www.w3.org/2000/svg" width="1200" height="630" viewBox="0 0 1200 630">
  <rect width="1200" height="630" fill="#f6f1e6"/>
  <path d="M0 0h1200v630H0z" fill="none"/>
  <g opacity="0.16" stroke="#000" stroke-width="1">
    <path d="M0 70h1200M0 140h1200M0 210h1200M0 280h1200M0 350h1200M0 420h1200M0 490h1200M0 560h1200"/>
    <path d="M70 0v630M140 0v630M210 0v630M280 0v630M350 0v630M420 0v630M490 0v630M560 0v630M630 0v630M700 0v630M770 0v630M840 0v630M910 0v630M980 0v630M1050 0v630M1120 0v630"/>
  </g>
  <rect x="78" y="78" width="1044" height="474" fill="#f6f1e6" stroke="#000" stroke-width="8"/>
  <rect x="126" y="126" width="32" height="378" fill="#0057b8"/>
  <circle cx="940" cy="180" r="86" fill="#df321f" stroke="#000" stroke-width="8"/>
  <rect x="905" y="352" width="150" height="150" fill="#f2c300" stroke="#000" stroke-width="8" transform="rotate(45 980 427)"/>
  <text x="190" y="256" fill="#000" font-family="Arial Black, Arial, sans-serif" font-size="76" font-weight="900" letter-spacing="-3">Carlos Manuel Cejas</text>
  <text x="194" y="326" fill="#000" font-family="Courier New, monospace" font-size="30">AI agents / autonomous systems / Lockup</text>
  <text x="194" y="382" fill="#3f3a34" font-family="Courier New, monospace" font-size="25">Computer science at Trinity College Dublin.</text>
  <path d="M190 435h520" stroke="#000" stroke-width="8"/>
  <path d="M190 466h330" stroke="#000" stroke-width="8"/>
</svg>
